<?xml version="1.0" standalone="no"?>
<!DOCTYPE svg PUBLIC "-//W3C//DTD SVG 20010904//EN"
 "http://www.w3.org/TR/2001/REC-SVG-20010904/DTD/svg10.dtd">
<svg version="1.0" xmlns="http://www.w3.org/2000/svg"
 width="256.000000pt" height="256.000000pt" viewBox="0 0 256.000000 256.000000"
 preserveAspectRatio="xMidYMid meet">
<metadata>
Created by potrace 1.11, written by Peter Selinger 2001-2013
</metadata>
<g transform="translate(0.000000,256.000000) scale(0.100000,-0.100000)"
fill="#000000" stroke="none">
<path d="M0 1280 l0 -1280 1280 0 1280 0 0 1280 0 1280 -600 0 -600 0 0 -160
0 -160 -80 0 -80 0 0 -40 0 -40 -40 0 -40 0 0 120 0 120 40 0 40 0 0 -40 0
-40 40 0 40 0 0 120 0 120 -640 0 -640 0 0 -1280z m1520 920 l0 -40 -40 0 -40
0 0 -40 0 -40 -40 0 -40 0 0 40 0 40 40 0 40 0 0 40 0 40 40 0 40 0 0 -40z
m-560 -80 l0 -40 -40 0 -40 0 0 40 0 40 40 0 40 0 0 -40z m800 0 l0 -40 -40 0
-40 0 0 40 0 40 40 0 40 0 0 -40z m-480 -80 l0 -40 -40 0 -40 0 0 40 0 40 40
0 40 0 0 -40z m-320 -120 l0 -80 -40 0 -40 0 0 80 0 80 40 0 40 0 0 -80z m160
40 l0 -40 40 0 40 0 0 -40 0 -40 40 0 40 0 0 40 0 40 40 0 40 0 0 40 0 40 40
0 40 0 0 -40 0 -40 40 0 40 0 0 -40 0 -40 -80 0 -80 0 0 -80 0 -80 -80 0 -80
0 0 80 0 80 -80 0 -80 0 0 80 0 80 40 0 40 0 0 -40z m800 0 l0 -40 40 0 40 0
0 -120 0 -120 -80 0 -80 0 0 80 0 80 40 0 40 0 0 40 0 40 -80 0 -80 0 0 40 0
40 80 0 80 0 0 -40z m-1200 -160 l0 -120 -80 0 -80 0 0 120 0 120 80 0 80 0 0
-120z m960 80 l0 -40 -40 0 -40 0 0 40 0 40 40 0 40 0 0 -40z m-640 -280 l0
-80 -80 0 -80 0 0 80 0 80 80 0 80 0 0 -80z m640 0 l0 -80 -80 0 -80 0 0 80 0
80 80 0 80 0 0 -80z m480 -40 l0 -40 -40 0 -40 0 0 40 0 40 40 0 40 0 0 -40z
m-1440 -120 l0 -80 -80 0 -80 0 0 80 0 80 80 0 80 0 0 -80z m640 0 l0 -80 -80
0 -80 0 0 80 0 80 80 0 80 0 0 -80z m640 0 l0 -80 -80 0 -80 0 0 80 0 80 80 0
80 0 0 -80z m-1520 -200 l0 -200 -40 0 -40 0 0 200 0 200 40 0 40 0 0 -200z
m1680 120 l0 -80 -40 0 -40 0 0 80 0 80 40 0 40 0 0 -80z m-1120 -80 l0 -80
-80 0 -80 0 0 80 0 80 80 0 80 0 0 -80z m640 0 l0 -80 -80 0 -80 0 0 80 0 80
80 0 80 0 0 -80z m480 -400 l0 -80 -40 0 -40 0 0 80 0 80 40 0 40 0 0 -80z
m-1680 -160 l0 -160 -40 0 -40 0 0 160 0 160 40 0 40 0 0 -160z m1680 -200 l0
-120 -40 0 -40 0 0 120 0 120 40 0 40 0 0 -120z m-1680 -240 l0 -40 -40 0 -40
0 0 40 0 40 40 0 40 0 0 -40z m1680 -120 l0 -80 -40 0 -40 0 0 80 0 80 40 0
40 0 0 -80z"/>
</g>
</svg>
